<svg id="Group_120" data-name="Group 120" xmlns="http://www.w3.org/2000/svg" width="50.082" height="53.685" viewBox="0 0 50.082 53.685">
  <path id="Path_42" data-name="Path 42" d="M309.392,705h-1.468c-.333.091-.67.17-1,.274a5.72,5.72,0,0,0-3.982,5.67q-.02,10.249,0,20.5a2.938,2.938,0,0,0,.055.625,1.545,1.545,0,0,0,1.926,1.149c.783-.218,1.161-.8,1.162-1.819q0-10.092,0-20.183a6.36,6.36,0,0,1,.053-.94,2.54,2.54,0,0,1,3.064-2.059,2.569,2.569,0,0,1,2,2.758q0,11.035,0,22.07,0,8.755,0,17.509a7.979,7.979,0,0,0,5.941,7.875c.35.093.7.172,1.054.258h19.293c.469-.119.944-.217,1.406-.361a7.986,7.986,0,0,0,5.589-7.826q.007-14.81-.006-29.62a1.252,1.252,0,0,1,.386-.97c.654-.656,1.277-1.341,1.913-2.015q2.842-3.013,5.682-6.027a1.558,1.558,0,0,0,.372-1.91,1.7,1.7,0,0,0-1.709-.873q-18.191.012-36.383.016a.728.728,0,0,1-.833-.536,5.39,5.39,0,0,0-2.983-3.073A15.248,15.248,0,0,0,309.392,705Zm11.343,42.065c0,.628.025,1.169-.006,1.706a1.554,1.554,0,0,1-3.057.258,3.128,3.128,0,0,1-.07-.726q-.005-12.394,0-24.788c0-.122,0-.245.007-.367a1.573,1.573,0,0,1,1.621-1.516,1.552,1.552,0,0,1,1.514,1.613c.011.484,0,.969,0,1.527h10.729c1.264,0,2,.572,2.005,1.56s-.744,1.585-1.989,1.585q-5.031,0-10.062,0h-.647v3.226h.6c1.345,0,2.69-.014,4.035.006a1.59,1.59,0,0,1,1.694,1.61,1.573,1.573,0,0,1-1.709,1.528c-1.345.008-2.69,0-4.035,0h-.59v3.242h.593c1.328,0,2.655-.005,3.983,0a1.608,1.608,0,0,1,1.759,1.6,1.583,1.583,0,0,1-1.748,1.543c-1.345.007-2.69,0-4.035,0-.184,0-.367.019-.54.028v3.214h10.729a4.464,4.464,0,0,1,.523.011,1.6,1.6,0,0,1,1.43,1.443,1.566,1.566,0,0,1-1.14,1.623,3.035,3.035,0,0,1-.778.065q-5.057.006-10.115,0Z" transform="translate(-302.935 -705)" fill="#fff"/>
</svg>
