<svg xmlns="http://www.w3.org/2000/svg" width="54" height="54.216" viewBox="0 0 54 54.216">
  <g id="Group_57" data-name="Group 57" transform="translate(-2310.116 -840.76)">
    <path id="Path_32" data-name="Path 32" d="M2356.176,840.76c.337.091.677.171,1.009.276a5.8,5.8,0,0,1,4.062,5.641.764.764,0,0,0,.574.871,5.86,5.86,0,0,1,3.665,6.073,1.566,1.566,0,0,1-1.523,1.424q-4.287.027-8.574,0a1.568,1.568,0,0,1-1.54-1.518,5.956,5.956,0,0,1,3.872-6.062.475.475,0,0,0,.368-.528,2.7,2.7,0,0,0-2.96-3c-.564,0-1.129,0-1.693,0a2.643,2.643,0,0,0-2.764,2.762q-.008,6.06,0,12.12v.661c-1.049-.428-2.042-.825-3.025-1.246-.083-.036-.145-.222-.145-.339,0-3.9-.051-7.8.023-11.7a5.738,5.738,0,0,1,4.708-5.336,3.166,3.166,0,0,0,.345-.1Z" transform="translate(-32.08)" fill="#c5dfdd"/>
    <path id="Path_33" data-name="Path 33" d="M2380.184,1062.244a14.338,14.338,0,0,1-9.655,14.465,13.694,13.694,0,0,1-4.463.759c-6.439.005-12.879.035-19.318-.006a14.28,14.28,0,0,1-14.174-14.161c-.016-1.552,0-3.1,0-4.657,0-.118.016-.236.026-.382,1.261.432,2.482.879,3.721,1.271a55.122,55.122,0,0,0,14.049,2.587c2.342.112,4.69.115,7.035.12q11.061.021,22.123.005Z" transform="translate(-19.274 -186.735)" fill="#c5dfdd"/>
    <path id="Path_34" data-name="Path 34" d="M2346.361,995.752c-4.217,0-8.434.04-12.65-.009A54.2,54.2,0,0,1,2312.181,991a3.364,3.364,0,1,1,2.656-6.18,52.744,52.744,0,0,0,9.478,3.095,50.5,50.5,0,0,0,10.816,1.117q12.65,0,25.3,0a3.655,3.655,0,0,1,2.423.742,3.355,3.355,0,0,1,1.079,3.717,3.3,3.3,0,0,1-3.175,2.276c-4.8.013-9.6,0-14.4,0Z" transform="translate(0 -123.431)" fill="#c5dfdd"/>
    <path id="Path_35" data-name="Path 35" d="M2356.364,1195.541l2.79,1.545c-.415.617-.8,1.244-1.243,1.836a1.577,1.577,0,0,1-2.625-1.739C2355.615,1196.626,2356,1196.1,2356.364,1195.541Z" transform="translate(-38.586 -304.596)" fill="#c5dfdd"/>
    <path id="Path_36" data-name="Path 36" d="M2618.055,1197.1l2.789-1.546c.363.551.757,1.091,1.089,1.667a1.576,1.576,0,0,1-2.655,1.691C2618.855,1198.328,2618.471,1197.717,2618.055,1197.1Z" transform="translate(-264.38 -304.605)" fill="#c5dfdd"/>
  </g>
</svg>
