<svg id="Group_101" data-name="Group 101" xmlns="http://www.w3.org/2000/svg" width="50.843" height="54.5" viewBox="0 0 50.843 54.5">
  <path id="Path_42" data-name="Path 42" d="M309.49,705H308c-.339.092-.681.173-1.015.278a5.807,5.807,0,0,0-4.042,5.756q-.02,10.4,0,20.809a2.984,2.984,0,0,0,.056.634,1.569,1.569,0,0,0,1.955,1.167c.8-.221,1.179-.816,1.179-1.847q0-10.245,0-20.49a6.461,6.461,0,0,1,.054-.955,2.579,2.579,0,0,1,3.11-2.09,2.608,2.608,0,0,1,2.028,2.8q0,11.2,0,22.406,0,8.888,0,17.775a8.1,8.1,0,0,0,6.031,7.995c.355.094.714.175,1.07.261h19.586c.476-.121.959-.22,1.427-.366a8.107,8.107,0,0,0,5.674-7.945q.007-15.035-.006-30.07a1.271,1.271,0,0,1,.392-.984c.664-.666,1.3-1.362,1.942-2.045q2.885-3.058,5.768-6.118a1.581,1.581,0,0,0,.377-1.939,1.727,1.727,0,0,0-1.735-.886q-18.468.012-36.935.016a.74.74,0,0,1-.846-.544,5.472,5.472,0,0,0-3.028-3.12A15.481,15.481,0,0,0,309.49,705ZM321,747.7c0,.638.025,1.186-.006,1.732a1.578,1.578,0,0,1-3.1.262,3.175,3.175,0,0,1-.071-.737q-.005-12.582,0-25.165c0-.124,0-.249.007-.372a1.6,1.6,0,0,1,1.646-1.539,1.576,1.576,0,0,1,1.537,1.637c.012.492,0,.984,0,1.551h10.892c1.283,0,2.029.581,2.035,1.583s-.756,1.609-2.019,1.609q-5.107,0-10.215,0h-.657v3.275h.611c1.366,0,2.731-.014,4.1.006a1.614,1.614,0,0,1,1.72,1.634,1.6,1.6,0,0,1-1.735,1.551c-1.365.008-2.731,0-4.1,0h-.6v3.291h.6c1.348,0,2.7-.005,4.043,0a1.633,1.633,0,0,1,1.786,1.623,1.607,1.607,0,0,1-1.775,1.567c-1.365.007-2.731,0-4.1,0-.186,0-.373.019-.549.029v3.263H331.95a4.533,4.533,0,0,1,.531.011,1.623,1.623,0,0,1,1.452,1.465,1.59,1.59,0,0,1-1.157,1.648,3.079,3.079,0,0,1-.79.066q-5.134.006-10.268,0Z" transform="translate(-302.935 -705)" fill="#84c8f5"/>
</svg>
